<svg width="72" height="72" fill="none" xmlns="http://www.w3.org/2000/svg"><path d="M35.998 39.9c-.39 0-.78-.09-1.14-.3L8.368 24.27a2.255 2.255 0 0 1-.81-3.09c.63-1.08 1.98-1.44 3.09-.81l25.35 14.67 25.2-14.58c1.08-.63 2.46-.24 3.09.81.63 1.08.24 2.46-.81 3.09L37.168 39.6c-.39.18-.78.3-1.17.3z" fill="#2639ED"/><path d="M36 67.08c-1.23 0-2.25-1.02-2.25-2.25V37.62c0-1.23 1.02-2.25 2.25-2.25s2.25 1.02 2.25 2.25v27.21c0 1.23-1.02 2.25-2.25 2.25z" fill="#2639ED"/><path d="M35.997 68.25c-2.73 0-5.34-.63-7.32-1.74l-16.02-8.88c-4.35-2.4-7.77-8.19-7.77-13.17V27.48c0-4.98 3.42-10.74 7.77-13.17l16.02-8.88c4.08-2.28 10.5-2.28 14.61 0l16.02 8.88c4.35 2.4 7.77 8.19 7.77 13.17v10.98c0 1.23-1.02 2.25-2.25 2.25s-2.25-1.02-2.25-2.25V27.48c0-3.3-2.55-7.62-5.43-9.21l-16.02-8.88c-2.73-1.53-7.5-1.53-10.23 0l-16.02 8.88c-2.91 1.62-5.43 5.91-5.43 9.21v16.98c0 3.3 2.55 7.62 5.43 9.21l16.02 8.88c2.64 1.47 7.62 1.47 10.23 0 1.08-.6 2.46-.21 3.06.87.6 1.08.21 2.46-.87 3.06-1.98 1.14-4.59 1.77-7.32 1.77z" fill="#2639ED"/><path d="M57.6 66.45c-6.54 0-11.85-5.31-11.85-11.85s5.31-11.85 11.85-11.85 11.85 5.31 11.85 11.85-5.31 11.85-11.85 11.85zm0-19.2c-4.05 0-7.35 3.3-7.35 7.35s3.3 7.35 7.35 7.35 7.35-3.3 7.35-7.35-3.3-7.35-7.35-7.35z" fill="#2639ED"/><path d="M68.998 68.25c-.57 0-1.14-.21-1.59-.66l-3-3c-.87-.87-.87-2.31 0-3.18.87-.87 2.31-.87 3.18 0l3 3c.87.87.87 2.31 0 3.18-.45.45-1.02.66-1.59.66z" fill="#2639ED"/></svg>