<svg width="72" height="72" fill="none" xmlns="http://www.w3.org/2000/svg"><path d="M30.33 54.45H18.96c-1.23 0-2.25-1.02-2.25-2.25V36.84c0-3.12 2.55-5.671 5.67-5.671h7.95c1.23 0 2.25 1.02 2.25 2.25v18.75c0 1.26-1.02 2.28-2.25 2.28zm-9.12-4.5h6.87V35.7h-5.7c-.63 0-1.17.509-1.17 1.169v13.08z" fill="#F90"/><path d="M41.669 54.45h-11.37c-1.23 0-2.25-1.02-2.25-2.25V23.218c0-3.12 2.55-5.67 5.67-5.67h4.56c3.12 0 5.67 2.55 5.67 5.67v28.98c-.03 1.23-1.02 2.25-2.28 2.25zm-9.09-4.5h6.87V23.218c0-.63-.51-1.17-1.17-1.17h-4.56c-.63 0-1.17.51-1.17 1.17v26.73h.03z" fill="#F90"/><path d="M53.042 54.45h-11.37c-1.23 0-2.25-1.02-2.25-2.25V38.548c0-1.23 1.02-2.25 2.25-2.25h7.95c3.12 0 5.67 2.55 5.67 5.67v10.23c0 1.23-.99 2.25-2.25 2.25zm-9.12-4.5h6.87v-7.981c0-.63-.51-1.17-1.17-1.17h-5.7v9.15z" fill="#F90"/><path d="M45 68.25H27C10.71 68.25 3.75 61.29 3.75 45V27C3.75 10.71 10.71 3.75 27 3.75h18c16.29 0 23.25 6.96 23.25 23.25v18c0 16.29-6.96 23.25-23.25 23.25zm-18-60C13.17 8.25 8.25 13.17 8.25 27v18c0 13.83 4.92 18.75 18.75 18.75h18c13.83 0 18.75-4.92 18.75-18.75V27c0-13.83-4.92-18.75-18.75-18.75H27z" fill="#F90"/></svg>