<svg width="72" height="72" fill="none" xmlns="http://www.w3.org/2000/svg"><path d="M30.15 7.59 12.09 19.38c-5.79 3.78-5.79 12.24 0 16.02l18.06 11.79c3.24 2.13 8.58 2.13 11.82 0L59.94 35.4c5.76-3.78 5.76-12.21 0-15.99L41.97 7.62c-3.24-2.16-8.58-2.16-11.82-.03z" stroke="#FF007A" stroke-width="4.5" stroke-linecap="round" stroke-linejoin="round"/><path d="m16.89 39.24-.03 14.07c0 3.81 2.94 7.89 6.54 9.09l9.57 3.18c1.65.54 4.38.54 6.06 0l9.57-3.18c3.6-1.2 6.54-5.28 6.54-9.09V39.39M64.2 45V27" stroke="#FF007A" stroke-width="4.5" stroke-linecap="round" stroke-linejoin="round"/></svg>