<svg width="72" height="72" fill="none" xmlns="http://www.w3.org/2000/svg"><path d="M63.24 25.74v20.52c0 3.36-1.8 6.48-4.71 8.19L40.71 64.74a9.49 9.49 0 0 1-9.45 0L13.44 54.45a9.449 9.449 0 0 1-4.71-8.19V25.74c0-3.36 1.8-6.48 4.71-8.19L31.26 7.26a9.49 9.49 0 0 1 9.45 0l17.82 10.29c2.91 1.71 4.71 4.8 4.71 8.19z" stroke="#00DA71" stroke-width="4.5" stroke-linecap="round" stroke-linejoin="round"/><path d="M36 33a6.99 6.99 0 1 0 0-13.98A6.99 6.99 0 0 0 36 33zm12 16.98c0-5.4-5.37-9.78-12-9.78s-12 4.38-12 9.78" stroke="#00DA71" stroke-width="4.5" stroke-linecap="round" stroke-linejoin="round"/></svg>