<svg xmlns="http://www.w3.org/2000/svg" viewBox="0 0 114 20" fill="none"><path d="M5.40322 19.6237V9.51613H8.25269V6.1828H5.40322V6.04839C5.40322 4.38172 6.35305 3.62007 8.25269 3.76344V0.430108C6.15591 0.304659 4.57885 0.734767 3.5215 1.72043C2.46416 2.70609 1.93548 4.14875 1.93548 6.04839V6.1828H0V9.51613H1.93548V19.6237H5.40322ZM14.7043 20C16.5323 20 17.8674 19.3728 18.7097 18.1183V19.6237H22.1774V6.1828H18.7097V13.4409C18.7097 14.552 18.4409 15.3853 17.9032 15.9409C17.3656 16.4964 16.6487 16.7742 15.7527 16.7742C14.9462 16.7742 14.3011 16.5367 13.8172 16.0618C13.3333 15.5869 13.0914 14.9014 13.0914 14.0054V6.1828H9.62365V14.4355C9.62365 16.1738 10.103 17.5358 11.0618 18.5215C12.0206 19.5072 13.2348 20 14.7043 20ZM28.8172 19.6237V12.3656C28.8172 11.2545 29.086 10.4211 29.6236 9.86559C30.1613 9.31004 30.8781 9.03226 31.7742 9.03226C32.5806 9.03226 33.2258 9.26971 33.7097 9.74462C34.1935 10.2195 34.4355 10.905 34.4355 11.8011V19.6237H37.9032V11.371C37.9032 9.63262 37.4238 8.27061 36.465 7.28495C35.5063 6.29928 34.2921 5.80645 32.8226 5.80645C30.9946 5.80645 29.6595 6.43369 28.8172 7.68817V6.1828H25.3495V19.6237H28.8172ZM46.6935 20C48.5753 20 50.0269 19.3459 51.0484 18.0376V19.6237H54.5161V0.806452H51.0484V7.76882C50.0269 6.46057 48.5753 5.80645 46.6935 5.80645C44.8835 5.80645 43.3378 6.49194 42.0564 7.8629C40.7751 9.23387 40.1344 10.914 40.1344 12.9032C40.1344 14.8925 40.7751 16.5726 42.0564 17.9435C43.3378 19.3145 44.8835 20 46.6935 20ZM47.3387 16.6935C46.2634 16.6935 45.3674 16.3441 44.6505 15.6452C43.9516 14.9283 43.6021 14.0143 43.6021 12.9032C43.6021 11.7921 43.9561 10.8826 44.664 10.1747C45.3719 9.46685 46.2634 9.1129 47.3387 9.1129C48.414 9.1129 49.3011 9.46685 50 10.1747C50.6989 10.8826 51.0484 11.7921 51.0484 12.9032C51.0484 14.0143 50.6989 14.9238 50 15.6317C49.3011 16.3396 48.414 16.6935 47.3387 16.6935ZM61.2365 19.6237V8.44086H64.7849V6.1828H61.2365V5.77957C61.2365 3.53943 62.4193 2.51792 64.7849 2.71505V0.456989C62.8853 0.331541 61.4292 0.734767 60.4167 1.66667C59.4041 2.59857 58.8978 3.96953 58.8978 5.77957V6.1828H56.7473V8.44086H58.8978V19.6237H61.2365ZM72.8763 19.9731C74.8477 19.9731 76.5233 19.2921 77.9032 17.9301C79.2831 16.5681 79.9731 14.8925 79.9731 12.9032C79.9731 10.914 79.2831 9.23835 77.9032 7.87634C76.5233 6.51434 74.8477 5.83333 72.8763 5.83333C70.905 5.83333 69.2339 6.51434 67.8629 7.87634C66.4919 9.23835 65.8064 10.914 65.8064 12.9032C65.8064 14.8925 66.4919 16.5681 67.8629 17.9301C69.2339 19.2921 70.905 19.9731 72.8763 19.9731ZM72.8763 17.6882C71.5502 17.6882 70.4301 17.2312 69.5161 16.3172C68.6021 15.4032 68.1452 14.2652 68.1452 12.9032C68.1452 11.5412 68.6021 10.4032 69.5161 9.48925C70.4301 8.57527 71.5502 8.11828 72.8763 8.11828C74.2204 8.11828 75.3494 8.57527 76.2634 9.48925C77.1774 10.4032 77.6344 11.5412 77.6344 12.9032C77.6344 14.2652 77.1774 15.4032 76.2634 16.3172C75.3494 17.2312 74.2204 17.6882 72.8763 17.6882ZM85.0806 19.6237V0H82.7419V19.6237H85.0806ZM89.8387 3.73656C90.2688 3.73656 90.6362 3.58423 90.9408 3.27957C91.2455 2.97491 91.3978 2.60753 91.3978 2.17742C91.3978 1.74731 91.2455 1.37545 90.9408 1.06183C90.6362 0.748208 90.2688 0.591398 89.8387 0.591398C89.3907 0.591398 89.0143 0.748208 88.7097 1.06183C88.405 1.37545 88.2527 1.74731 88.2527 2.17742C88.2527 2.60753 88.405 2.97491 88.7097 3.27957C89.0143 3.58423 89.3907 3.73656 89.8387 3.73656ZM90.9946 19.6237V6.1828H88.6559V19.6237H90.9946ZM100.887 19.9731C102.858 19.9731 104.534 19.2921 105.914 17.9301C107.294 16.5681 107.984 14.8925 107.984 12.9032C107.984 10.914 107.294 9.23835 105.914 7.87634C104.534 6.51434 102.858 5.83333 100.887 5.83333C98.9157 5.83333 97.2446 6.51434 95.8736 7.87634C94.5027 9.23835 93.8172 10.914 93.8172 12.9032C93.8172 14.8925 94.5027 16.5681 95.8736 17.9301C97.2446 19.2921 98.9157 19.9731 100.887 19.9731ZM100.887 17.6882C99.5609 17.6882 98.4408 17.2312 97.5269 16.3172C96.6129 15.4032 96.1559 14.2652 96.1559 12.9032C96.1559 11.5412 96.6129 10.4032 97.5269 9.48925C98.4408 8.57527 99.5609 8.11828 100.887 8.11828C102.231 8.11828 103.36 8.57527 104.274 9.48925C105.188 10.4032 105.645 11.5412 105.645 12.9032C105.645 14.2652 105.188 15.4032 104.274 16.3172C103.36 17.2312 102.231 17.6882 100.887 17.6882Z" fill="white"/><path d="M112.231 19.9194C112.733 19.9194 113.15 19.7492 113.481 19.4087C113.813 19.0682 113.978 18.656 113.978 18.1721C113.978 17.6882 113.813 17.2761 113.481 16.9356C113.15 16.5951 112.733 16.4248 112.231 16.4248C111.747 16.4248 111.335 16.5951 110.995 16.9356C110.654 17.2761 110.484 17.6882 110.484 18.1721C110.484 18.656 110.654 19.0682 110.995 19.4087C111.335 19.7492 111.747 19.9194 112.231 19.9194Z" fill="#F55240"/></svg>